<?xml version="1.0" encoding="utf-8"?>
<!-- Generator: Adobe Illustrator 25.2.0, SVG Export Plug-In . SVG Version: 6.00 Build 0)  -->
<svg version="1.1" id="Layer_1" xmlns="http://www.w3.org/2000/svg" xmlns:xlink="http://www.w3.org/1999/xlink" x="0px" y="0px"
	 viewBox="0 0 808 568.3" style="enable-background:new 0 0 808 568.3;" xml:space="preserve">
<style type="text/css">
	.st0{fill-rule:evenodd;clip-rule:evenodd;fill:#EFEFEF;}
</style>
<g id="Layer_2_1_">
	<g id="Layer_1-2">
		<path class="st0" d="M799.8,122.6c0,0-7.9-55.7-32.2-80.2c-30.8-32.2-65.2-32.4-81-34.2C573.7,0,404,0,404,0h-0.3
			c0,0-169.7,0-282.7,8.2c-15.8,1.9-50.2,2.1-81,34.2C15.8,66.9,8,122.6,8,122.6S0,188,0,253.5v61.2c0,65.4,8,130.9,8,130.9
			s7.9,55.7,32,80.2c30.8,32.2,71.2,31.1,89.2,34.5c64.7,6.2,274.8,8,274.8,8s169.9-0.3,282.9-8.3c15.8-1.9,50.2-2.1,81-34.2
			c24.3-24.5,32.2-80.2,32.2-80.2s8-65.4,8-130.9v-61.2C807.8,188.1,799.8,122.6,799.8,122.6L799.8,122.6z M320.3,389V161.9
			l218.3,113.9L320.3,389z"/>
	</g>
</g>
</svg>
