<?xml version="1.0" encoding="utf-8"?>
<!-- Generator: Adobe Illustrator 25.2.0, SVG Export Plug-In . SVG Version: 6.00 Build 0)  -->
<svg version="1.1" id="Layer_1" xmlns="http://www.w3.org/2000/svg" xmlns:xlink="http://www.w3.org/1999/xlink" x="0px" y="0px"
	 viewBox="0 0 189.2 28.5" style="enable-background:new 0 0 189.2 28.5;" xml:space="preserve">
<style type="text/css">
	.st0{fill:#F2F2F2;}
	.st1{fill:#579235;}
	.st2{fill:#5AB032;}
</style>
<g>
	<g>
		<g>
			<path class="st0" d="M31.9,8.5h4.8l4.8,8.4V8.5h3.7v15h-4.1l-5.5-9.4v9.4h-3.8V8.5z"/>
			<path class="st0" d="M47.7,19.7v-7.1h3.7v6.5c0,1.2,0.5,1.8,1.5,1.8c1.1,0,1.9-0.7,1.9-2.1v-6.3h3.7v10.9h-3.7v-1.7
				c-0.6,1.1-1.7,1.9-3.5,1.9C49.2,23.7,47.7,22.4,47.7,19.7z"/>
			<path class="st0" d="M60.8,12.5h3.7v2.2c0.7-1.6,1.8-2.3,3.5-2.3v3.5c-2.3-0.1-3.5,0.6-3.5,2.4v5.2h-3.7V12.5z"/>
			<path class="st0" d="M69.7,9.6c0-1.1,0.9-1.9,2.1-1.9c1.2,0,2.1,0.8,2.1,1.9c0,1.1-0.9,1.9-2.1,1.9C70.5,11.5,69.7,10.7,69.7,9.6
				z M69.9,12.5h3.7v10.9h-3.7V12.5z"/>
			<path class="st0" d="M75.9,12.5h3.7v1.6c0.6-1,1.8-1.9,3.4-1.9c2.6,0,4.6,1.9,4.6,5.7v0.2c0,3.8-2.1,5.6-4.6,5.6
				c-1.7,0-2.8-0.8-3.4-1.9v5.3h-3.7V12.5z M83.9,18.1v-0.2c0-1.9-0.8-2.8-2.2-2.8c-1.4,0-2.2,1-2.2,2.8v0.2c0,1.9,0.8,2.8,2.2,2.8
				C83.1,20.9,83.9,19.9,83.9,18.1z"/>
			<path class="st0" d="M89.5,7.7h3.7v15.8h-3.7V7.7z"/>
			<path class="st0" d="M94.9,20.4c0-2.6,2.2-3.6,5.8-3.6h1v-0.3c0-1-0.3-1.7-1.4-1.7c-1,0-1.4,0.6-1.5,1.3h-3.5
				c0.2-2.6,2.2-3.9,5.2-3.9c3,0,4.9,1.2,4.9,4.1v7.1h-3.6v-1.3c-0.5,0.8-1.5,1.5-3.2,1.5C96.6,23.7,94.9,22.8,94.9,20.4z
				 M101.8,19.7V19h-1c-1.5,0-2.2,0.3-2.2,1.2c0,0.6,0.4,1,1.3,1C101,21.2,101.8,20.6,101.8,19.7z"/>
			<path class="st0" d="M107.6,12.5h3.7v1.8c0.6-1.1,1.8-2.1,3.6-2.1c2.1,0,3.6,1.3,3.6,4.1v7.1h-3.7v-6.4c0-1.2-0.5-1.8-1.6-1.8
				c-1.1,0-1.9,0.7-1.9,2.1v6.1h-3.7V12.5z"/>
			<path class="st0" d="M124.3,16.1v-0.2c0-4.6,3.3-7.6,7.8-7.6c3.5,0,6.7,1.6,7,5.5h-4.2c-0.2-1.4-1.1-2.1-2.7-2.1
				c-2.1,0-3.4,1.6-3.4,4.3v0.2c0,2.4,0.9,4.3,3.5,4.3c2.1,0,2.9-1.1,3-2.3h-2.8v-3h7v1.8c0,3.8-2.5,6.7-7.3,6.7
				C127.1,23.7,124.3,20.6,124.3,16.1z"/>
			<path class="st0" d="M141.3,12.5h3.7v2.2c0.7-1.6,1.8-2.3,3.5-2.3v3.5c-2.3-0.1-3.5,0.6-3.5,2.4v5.2h-3.7V12.5z"/>
			<path class="st0" d="M149.5,18.1V18c0-3.5,2.6-5.7,6-5.7c3.4,0,6,2.2,6,5.6V18c0,3.6-2.6,5.7-6,5.7S149.5,21.7,149.5,18.1z
				 M157.7,18.1v-0.2c0-1.8-0.7-2.9-2.2-2.9c-1.4,0-2.2,1-2.2,2.8V18c0,1.9,0.7,2.9,2.2,2.9C156.9,20.9,157.7,19.9,157.7,18.1z"/>
			<path class="st0" d="M163.1,19.7v-7.1h3.7v6.5c0,1.2,0.5,1.8,1.5,1.8c1.1,0,1.9-0.7,1.9-2.1v-6.3h3.7v10.9h-3.7v-1.7
				c-0.6,1.1-1.7,1.9-3.5,1.9C164.6,23.7,163.1,22.4,163.1,19.7z"/>
			<path class="st0" d="M176.2,12.5h3.7v1.6c0.6-1,1.8-1.9,3.4-1.9c2.6,0,4.6,1.9,4.6,5.7v0.2c0,3.8-2.1,5.6-4.6,5.6
				c-1.7,0-2.8-0.8-3.4-1.9v5.3h-3.7V12.5z M184.1,18.1v-0.2c0-1.9-0.8-2.8-2.2-2.8c-1.4,0-2.2,1-2.2,2.8v0.2c0,1.9,0.8,2.8,2.2,2.8
				C183.4,20.9,184.1,19.9,184.1,18.1z"/>
		</g>
	</g>
	<g>
		<path class="st1" d="M22.6,15c-2.2,6.2-5.4,10.7-5.4,10.7s-0.5-5.8,1.8-12s6.4-10.3,6.4-10.3S24.9,8.9,22.6,15z"/>
		<path class="st2" d="M13.7,12.4c4.6,7.9,5.3,16.1,5.3,16.1s-6.7-4.7-11.3-12.7C3.1,7.9,2.4-0.3,2.4-0.3S9.1,4.5,13.7,12.4z"/>
		<path class="st2" d="M4.9,16.8C2.9,22.7,0.2,27,0.2,27S0,21.6,2,15.7S7.4,5.6,7.4,5.6S6.9,10.8,4.9,16.8z"/>
	</g>
</g>
</svg>
