<svg xmlns="http://www.w3.org/2000/svg" viewBox="0 0 24.94 28.53"><defs><style>.cls-1{fill:#579334;}.cls-2{fill:#5cb130;}</style></defs><g id="Layer_2" data-name="Layer 2"><g id="레이어_1" data-name="레이어 1"><path class="cls-1" d="M22.18,15.18a51.5,51.5,0,0,1-5.34,10.55,31.15,31.15,0,0,1,1.77-11.89A31.36,31.36,0,0,1,24.94,3.62,52.53,52.53,0,0,1,22.18,15.18Z"/><path class="cls-2" d="M13.37,12.56a43.14,43.14,0,0,1,5.22,16A43.36,43.36,0,0,1,7.42,16,43.38,43.38,0,0,1,2.2,0,43.16,43.16,0,0,1,13.37,12.56Z"/><path class="cls-2" d="M4.66,16.86A52.64,52.64,0,0,1,0,27,35.09,35.09,0,0,1,1.78,15.78a35.24,35.24,0,0,1,5.36-10A55.19,55.19,0,0,1,4.66,16.86Z"/></g></g></svg>